<?xml version="1.0" encoding="utf-8"?>
<!-- Generator: Adobe Illustrator 16.0.0, SVG Export Plug-In . SVG Version: 6.00 Build 0)  -->
<!DOCTYPE svg PUBLIC "-//W3C//DTD SVG 1.1//EN" "http://www.w3.org/Graphics/SVG/1.1/DTD/svg11.dtd">
<svg version="1.1" id="Layer_1" xmlns="http://www.w3.org/2000/svg" xmlns:xlink="http://www.w3.org/1999/xlink" x="0px" y="0px"
	 width="1000px" height="1000px" viewBox="0 0 1000 1000" enable-background="new 0 0 1000 1000" xml:space="preserve">
<g>
	<path fill="#FFFFFF" d="M820.871,752.945c-28.938,7.745-59.855,10.25-87.982,19.837c47.619-40.827,44.908-104.044,76.695-152.147
		c10.131-13.62,18.479-27.891,30.303-40.829c-19.354,38.794-10.936,89.104-33.158,126.736
		c-8.557,14.942-20.789,29.444-34.301,41.201c4.42-0.163,8.287-4.003,12.16-6.554c36.076-36.002,83.225-46.062,122.219-75.305
		c15.623-12.467,29.953-28.772,36.814-46.434C936.223,679.161,876.844,735.143,820.871,752.945L820.871,752.945z"/>
	<path fill="#FFFFFF" d="M950.83,511.156c-17.664,25.105-39,48.478-55.307,73.984c1.834-20.184,4.215-45.04-3.666-64.195
		c-13.652-41.204-25.611-83.056-29.482-128.312l0.543-17.284c10.254,46.197,55.637,77.958,52.785,129.791
		c1.025,12.57-2.85,23.204-5.227,34.279l0.814,0.816l2.033-2.312c6.729-25.406,10.121-52.137,20.582-75.847
		c14.881-34.141,33.424-68.584,25.896-109.791C982.414,400.864,975.553,465.781,950.83,511.156L950.83,511.156z"/>
	<path fill="#FFFFFF" d="M922.979,249.396c29.752,40.324,36.27,104.593,14.604,150.858c-8.086,19.598-13.785,40.487-16.982,62.191
		c-1.492-3.738-1.83-8.765-3.199-12.942c-11.814-45.28-54.688-77.548-72.277-120.252c-5.572-13.954-10.332-28.389-12.975-43.543
		c18.812,34.819,65.213,52.79,77.854,91.138c5.162,9.712,4.891,21.837,8.08,32.271c0.688,0,1.363-0.514,1.363-1.19
		c-5.572-39.503-3.867-80.877,1.492-119.906c-0.336-21.129-2.381-41.644-14.127-57.983
		C914.336,234.419,917.742,242.847,922.979,249.396L922.979,249.396z"/>
	<path fill="#FFFFFF" d="M901.979,241.656c7.812,35.323-3.6,69.769,3.604,105.438l-0.277,0.302
		c-19.225-37.81-60.047-55.642-88.107-85.907c-16.309-17.966-23.371-39.844-27.449-63.007c16.1,38.792,59.519,47.349,84.449,80.028
		c8.354,7.539,11.069,17.967,16.438,26.526l0.886-0.848c-14.327-30.603-19.155-65.043-29.144-97.688
		c-5.031-14.138-14.955-28.029-28.264-36.96C866.795,176.23,895.193,210.407,901.979,241.656L901.979,241.656z"/>
	<path fill="#FFFFFF" d="M814.479,160.605c24.664,22.045,35.811,50.613,43.002,80.202l4.09,9.405
		c-35.812-25.745-68.287-60.32-91.107-96.844l-27.93-28.227C767.059,135.537,793.488,141.756,814.479,160.605L814.479,160.605z"/>
	<path fill="#FFFFFF" d="M249.518,129.831c-24.728,21.672-41.884,49.082-60.225,74.664c-16.445,20.342-37.468,33.797-56.117,51.288
		c10.049-20.854,10.428-45.789,24.695-64.94C178.189,155.408,215.854,142.945,249.518,129.831L249.518,129.831z"/>
	<path fill="#FFFFFF" d="M114.29,205.311c12.025-14.943,27.276-25.342,44.436-29.724c-33.323,22.896-31.153,63.896-41.715,98
		c-3.364,12.597-9.208,24.214-12.126,37.157l0.844,0.681c5.542-14.636,15.284-28.432,27.448-40.353
		c23.677-21.844,58.665-35.462,70.25-67.768c-0.513,44.901-37.978,80.201-73.819,105.438
		c-14.771,12.976-29.042,27.746-37.162,44.397c-0.81-11.315,1.67-22.693,0.854-34.819C89.427,279.12,86.572,234.386,114.29,205.311
		L114.29,205.311z"/>
	<path fill="#FFFFFF" d="M46.891,339.344c-1.013-39.704,15.461-72.148,38.697-101.729c0.681-0.341,1.156-1.021,2.039-0.85
		c-25.582,38.856-4.419,87.809-5.6,131.994l-3.369,45.253c0.509,0.305,0.509,1.66,1.693,1.151
		c1.502-5.029,1.839-10.435,2.856-15.624c6.013-36.49,37.708-62.365,65.392-87.606c5.912-6.589,11.138-13.283,14.162-21.027
		c-2.241,18.173-7.942,36.484-15.485,53.294c-21.537,42.023-61.352,76.502-68.618,124.595
		C75.122,422.703,43.734,388.224,46.891,339.344L46.891,339.344z"/>
	<path fill="#FFFFFF" d="M27.528,395.835c2.865-12.429,5.067-25.274,10.471-36.687C27.74,411.666,63.067,449.504,74.646,495.02
		c4.856,17.021,6.052,35.33,12.981,51.293c0.643,0.337,1.186-0.337,1.594-0.846c-17.257-48.369,7.649-93.279,32.679-131.149
		c6.081-10.263,9.579-21.684,12.602-33.462c2.683,21.882-2.855,47.085-6.046,69.807c-6.08,28.908-15.15,56.32-23.058,84.374
		c-5.202,17.522-3.839,37.305-1.156,55.677l-2.515-2.038c-18.351-33.801-54.658-60.19-65.46-97.146
		C27.404,462.077,21.492,427.938,27.528,395.835L27.528,395.835z"/>
	<path fill="#FFFFFF" d="M25.873,498.385c4.045,55.685,63.89,85.088,91.646,131.146c6.55,9.414,12.265,19.877,21.028,27.756
		c-1.363-5.912-6.901-10.903-8.94-16.988c-9.713-19.317-13.245-42.353-10.898-65.722c2.683-28.429,14.603-54.823,10.049-84.716
		c24.392,52.582,16.987,118.182,30.607,175.143c3.569,12.457,10.772,23.57,15.49,35.491
		C124.79,666.356,56.48,633.917,34.266,571.381C24.885,549.844,23.833,523.144,25.873,498.385L25.873,498.385z"/>
	<path fill="#FFFFFF" d="M55.802,626.2c27.915,63.183,97.856,68.41,144.773,106.907c8.619,7.608,17.659,14.129,27.405,18.678
		l0.514-0.51c-10.769-9.741-23.24-20.827-30.774-33.456c-27.449-38.151-17.803-91.619-38.356-132.679
		c18.685,22.384,35.668,45.586,46.945,70.965c16.781,41.365,23.202,88.146,62.029,119.423
		c-42.022-13.819-91.243-9.943-128.333-35.839C99.509,714.805,63.37,672.604,55.802,626.2L55.802,626.2z"/>
	<path fill="#FFFFFF" d="M127.573,744.075c44.771,50.917,117.934,33.93,177.586,47.252c8.427,1.148,16.138,4.519,25.066,3.156
		c-7.102-4.514-16.985-4.015-24.727-8.082c-46.779-16.44-53.641-67.047-79.007-101.195c32.44,21.546,59.678,50.578,89.602,78.709
		c21.499,18.85,47.39,27.546,74.669,33.081c-6.563,2.381-15.147,1.738-22.188,3.57c-48.98,12.058-103.433,31.758-155.369,14.129
		C179.409,804.062,144.555,777.332,127.573,744.075L127.573,744.075z"/>
	<path fill="#FFFFFF" d="M735.334,862.76c-50.479,18.858-103.131-0.846-142.537-30.741c-15.957-10.126-30.021-24.725-50.676-23.437
		c-7.479-0.134-14.68,0.203-21.061,2.033c38.314,17.844,73.846,42.393,106.391,73.814c-5.508,6.258-12.572,12.12-19.295,17.496
		c-31.316-33.764-66.035-66.241-104.896-85.227c-7.604,0.988-14.84,5.537-21.704,9.229c-31.633,20.013-62.911,45.733-86.411,77.225
		l-20.217-16.69c32.271-32.603,67.938-58.006,106.964-76.146c-38.342-12.159-63.377,19.963-92.49,36.316
		c-33.933,23.695-82.717,34.812-123.71,18.466c-22.055-8.353-43.415-20.685-59.38-40.692c32.271,22.229,80.336,24.56,117.022,10.135
		c49.221-21.373,100.375-48.449,159.755-35.511c9.238,0.172,18.274,9.416,26.997,1.534c44.131-11.448,94.062-3.57,132.043,16.604
		l39.135,15.664c36.412,13.483,83.422,9.76,114.607-12.43C779.832,840.377,757.955,854.67,735.334,862.76L735.334,862.76z"/>
	<path fill="#FFFFFF" d="M789.408,810.615c-56.662,21.401-113.656-4.855-167.938-13.619l-10.459-1.323v-0.347
		c25.949-5.863,51.152-13.609,71.812-32.269c30.428-29.23,57.537-59.34,91.303-82.401c-25.074,32.132-27.723,77.854-69.098,98.546
		c-10.258,6.688-23.164,7.882-33.762,12.938c15.082,0.337,28.873-5.057,43.816-6.557c55.508-8.723,119.025,0.214,157.951-47.074
		C858.568,771.459,822.357,799.032,789.408,810.615L789.408,810.615z"/>
	<path fill="#FFFFFF" d="M892.332,651.248c-22.346,14.639-45.045,28.219-66.576,44.87v-2.045
		c32.943-54.753,16.852-129.92,37.162-190.151l7.543-20.179c-4.215,37.528,12.088,69.296,10.932,106.968
		c-1.156,22.725-8.557,42.898-20.512,61.039h2.037c16.1-21.163,28.74-43.707,47.559-63.891
		c29.283-28.228,59.033-57.172,62.902-96.333C983.303,556.918,946.611,614.214,892.332,651.248L892.332,651.248z"/>
	<path fill="#FFFFFF" d="M802.727,288.904C747.559,171.542,626.502,97.08,499.691,96.845
		c-55.472,1.051-106.417,13.322-152.989,36.35c-82.913,39.538-150.647,125.411-173.201,210.531
		c-37.132,143.252,13.11,288.358,136.04,372.567c88.417,63.41,229.389,75.541,328.643,26.93
		c87.973-37.017,163.73-127.941,186.762-217.938C847.635,449.135,837.646,356.293,802.727,288.904L802.727,288.904z
		 M818.557,407.587c0.812,5.739-0.541,12.641,2.643,17.323l-48.436,0.814c-1.15,0.889-2.51,1.53-4.012,1.53l1.367-2.011
		c-1.023-37.972-10.938-72.105-25.543-104.415c-0.547-14.474-14.545-24.215-20.518-36.787c-10.809-7.438-14-20.549-26.293-27.104
		c-2.309-2.51-3.33-6.728-6.863-7.544l5.711-1.19c11.613-11.915,24.252-23.499,33.418-35.971
		C780.24,268.726,812.164,332.794,818.557,407.587L818.557,407.587z M681.664,589.519c-4.209-4.011-4.35-11.92-11.752-11.747
		c-2.521-0.345-3.605,2.034-3.605,4.044c-0.133,1.148,0.344,2.514-0.469,3.327l-15.289-13.417
		c7.207-3.74,12.566-13.456,18.139-20.509c14.139-19.714,22.352-41.729,29.479-64.238c2.314,1.855,5.375,2.033,7.68,0.51
		c2.244-1.844,2.716-5.408,1.229-7.745l-5.645-6.052c0.75-10.082,3.471-20.008,2.38-30.301l3.739,1.19
		c15.625-0.14,31.588,0.844,46.732-0.645l-2.379,2.684c-3.807,60.696-24.992,115.488-67.389,160.231
		C686.352,600.959,680.779,595.949,681.664,589.519L681.664,589.519z M642.127,637.966c-8.771-8.061,5.428-14.815,8.082-22.266
		c-1.498-7.831-10.262-12.218-16.984-14.424c-3.193-1.794-2.107-5.875-2.375-8.532c3.059-3.081,6.113-5.566,7.604-9.607l1.162,3.196
		l20.646,21.364c0,4.884,0.883,9.059,5.576,11.267c2.297,0.989,4.885-1.007,6.924-0.364h-1.15
		c-8.971,9.779-19.908,17.15-29.971,25.107l-2.375,3.156C638.184,643.531,644.977,641.969,642.127,637.966L642.127,637.966z
		 M548.168,377.36c-2.721,1.017-5.572,2.851-8.566,1.492c-2.918-3.019-6.584-7.064-11.266-7.577
		c-3.201,0.854-5.438,4.895-9.244,2.716c6.043-6.584,16.781-7.773,21.336-16.844c1.285-4.348,2.518-8.901,2.039-13.422
		c-1.703-2.035-4.215-3.863-6.459-2.035c-3.326,5.572-11.004,6.729-14.604,12.641l-12.1-4.084
		c-2.037-11.037,0.777-25.203-2.412-34.781c6.418,2.347,13.482,2.515,20.223,4.045c17.178,4.382,32.801,12.434,47.955,21.839
		c-3.533,1.187-7.264,5.404-10.117,8.081c-0.146,3.028,3.186,2.18,4.551,4.012l3.191-1.156
		C567.527,365.396,550,363.362,548.168,377.36L548.168,377.36z M562.232,516.598c-0.273,6.038-8.902,5.863-12.914,10.05
		c-2.309-0.847-0.541-3.195,0-4.512C553.33,518.939,556.383,515.715,562.232,516.598L562.232,516.598z M657.41,355.482
		c5.572,1.19,8.896,7.745,14.541,8.935c4.951,7.713,6.854,16.614,9.311,25.372c-4.492,5.062-4.834,16.306-14.611,14.435
		c-2.318-5.363,4.42-8.527,2.854-13.581c1.766-1.363,4.416-2.006,4.957-4.559c-0.414-5.053-6.795-4.041-7.812-9.237
		c-1.973-2.855-5.357-2.544-8.02-3.532c-6.447-3.023-12.428,12.909-14.125,0.307c2.033-1.665,3.189-4.175,1.697-6.387
		c-5.574-3.023-6.051-10.734-12.164-13.792c-8.211,0.207-15.756-3.498-23.84-1.665c-5.168-1.189-11.281-4.683-15.291,0.85
		c-0.342,4.213-2.586,7.712-3.191,11.79c-1.898-1.055-3.531-2.894-4.553-4.894c14.812-16.508,31.725-33.15,47.221-49.26l0.881-2.034
		c7.74,9.583,16.787,19.161,22.492,29.925C659.105,344.546,646.676,351.27,657.41,355.482L657.41,355.482z M686.826,444.581
		c-2.852,9.103-2.514,19.535-4.826,28.771c-0.477,1.53-0.477,3.325-1.564,4.892c-2.852-5.706-5.156-13.316-11.748-16.682
		c-5.57-2.989-2.037-10.565-7.199-14.129l-5.232-5.199C665.15,446.106,676.77,445.123,686.826,444.581L686.826,444.581z
		 M616.719,301.842c-8.836,10.092-20.312,19.161-27.861,29.762l-1.221-3.536c-22.012-17.966-47.555-26.902-75.508-30.741
		l-4.344,0.782l0.332-45.521l-1.693-3.729c18.58,2.884,37.127,5.394,54.174,11.444c21.812,7.74,41.982,19.536,60.533,34.954
		l4.07,1.694L616.719,301.842L616.719,301.842z M570.658,550.87c14.811,1.354,28.73,4.521,42.047,9.541
		c3.33,0,7.07-0.308,9.238-2.824c-0.812-5.564,5.912-8.04,5.229-13.618c2.855-4.683,0.82-11.267,4.834-15.315
		c0.535-5.873-0.279-12.438-4.014-16.948c-3.672-2.38-6.996,0.644-10.602,1.151c-4.008,3.021-2.516,11.948-9.512,10.087
		c-1.693,2.342-4.957,2.342-7.271,1.697c-0.535-0.883-1.695-1.018-1.355-2.005c5.029-2.584,13.996-0.846,14.605-8.927
		c3.736-3.233,9.439-1.843,12.971-5.711c2.52-4.076,3.672-7.574,7.205-11.312c0.346-1.665,1.023-3.323,0.881-5.157
		c1.022,2.309,1.022,5.569,4.008,6.856c3.873,1.193,5.578-2.002,7.275-4.55c-0.197-1.33,0.811-3.33,2.312-2.006
		c4.211,3.364,10.115,0.475,15.006,0.883c4.146-1.363,8.705-2.207,13.25-2.375c-4.008,18.517-13.445,35.791-24.588,51.974
		c-4.143,5.153-7.885,10.729-12.566,15.787c-1.432-3.866-1.363-9.098-4.695-12.631l-2.039,0.51
		c-2.715,5.364-8.08,9.913-7.396,16.134c-4.01,6.422-14.129,1.018-20.18,4.386c-7.201,2.208-11.076-4.855-16.85-6.393
		c-6.32-2.688-13.721-2.852-19.771-6.034C568.475,552.559,569.367,551.341,570.658,550.87L570.658,550.87z M539.203,117.398
		c67.32,9.237,127.646,35.971,178.471,84.409l-5.779,2.317c-9.242,9.943-19.973,18.034-25.408,29.479
		c-0.613-3.195-5.369-5.397-6.859-8.426c-1.014-9.243-9.852-18.005-17.801-22.718c-6.586-1.199-8.084-11.08-16.16-8.052
		c-6.738-5.706-15.16-1.497-21.682,1.664v0.846c-31.928-18.173-67.602-29.417-106.109-32.271c-1.906,0-2.854,1.491-4.861,1.161
		c2.006-1.329,0.967-5.409,0.824-7.683c-1.061-1.732-3.031-3.738-5.383-2.409c-0.844,1.189-1.562,2.543-1.562,4.04
		c1.061-14.942,1.562-33.12-0.469-46.394C516.641,116.549,528.465,115.531,539.203,117.398L539.203,117.398z M526.291,184.825
		c29.486,3.536,55.506,11.584,81.592,23.37c3.812,5.873,11.416,8.729,12.367,16.138c-3.807,10.221,13.656,10.086,5.766,20.548
		c-0.533,3.325,2.316,5.169,3.473,7.707c1.018,2.855-0.475,7.208,2.928,8.901c6.037,1.33,8.557-6.729,14.598-4.549
		c7.881,5.705,9.592,15.115,9.592,23.878c1.012,5.538,5.695,9.271,10.59,11.277c9.918-3.019,5.168,8.086,12.098,10.938
		c7.74,0.95,11.613,10.908,20.174,10.092c7.609,5.706,11.746,14.094,18.551,20.515c-0.211,1.497,0.609,2.851,1.965,3.368
		c4.084,0.979,6.588-1.871,10.055-2.006c12.975,26.522,19.365,55.944,21.871,87.055l1.568,3.19
		c-16.303-0.163-32.605,0.178-49.316,1.188c-0.48-9.61,0.207-19.658-5.166-27.408c2.715-5.06,3.189-11.617,2.85-17.323
		c-1.014-2.511-3.258-0.303-4.348,0c-5.371,5.23-6.115,12.433-8.898,18.552c-4.613,6.521-5.293,16.401-2.582,23.852l2.041,2.033
		l-18.814-0.413c4.477-2.854-3.871-8.354,0.678-12.94l8.557-1.665c2.646-6.215,9.371-10.771,9.238-18.14
		c3.668-4.515,7.064-10.389,4.412-16.507c-4.068-9.238,6.869-18.648-1.559-27.411c0.812-2.481-1.016-6.182-4.076-6.046
		c-2.646-0.816-5.705,0-5.705-3.672c1.557-2.337,5.434-4.722,4.551-8.388c-2.031-2.548-5.227-0.336-7.746-0.509
		c-0.682-4.074,6.934-8.427,0.346-12.126c-4.562-0.816-7.066,4.89-11.621,2.884c-1.979-1.694-3.459-4.549-1.633-6.93l-10.117-12.434
		c-1.021-1.189-3.875,0.653-4.01-1.66c0.682-9.919-11.412-15.485-12.098-25.376c-3.727-3.393-0.744-9.611-5.572-12.467
		c-2.715-2.035-5.705-4.343-9.367-2.855c-4.213-6.074-9.105-11.958-14.881-17.323c-1.631-0.504-2.85,0.509-3.602,1.531
		c0.752,4.693,6.324,7.371,5.983,12.567c-0.815-0.168-1.5,0-1.976,0.682c0.683,4.89,4.562,8.767,7.68,12.126
		c-26.357-20.351-57.48-30.947-90.428-36.312c-6.389-0.172-12.979-2.85-19.396-0.682c1.561-14.606,0.547-31.281,0.893-46.944
		l-1.711-3.188C512.332,185.3,519.092,183.803,526.291,184.825L526.291,184.825z M498.031,378.507l2.819,1.531
		c-3.497,0.173-7.51-2.035-10.532,0.479c-2.073,1.526-0.715,4.214,0,6.042c6.019,2.381,7.41,12.3,15.428,8.427
		c3.389,0.711,7.564,1.363,8.719,5.27c4.896,1.799,5.576,10.391,12.164,8.556c-0.338,3.158-1.354,8.729,2.516,11.21
		c-1.016,2.853-4.688,4.086-4.553,7.778c-0.807,0.984-1.691,2.678-0.615,4.046c6.184,0.641,5.846,7.712,8.705,11.546
		c-1.365,4.931,0.336,9.919,4.545,12.642c-0.672,5.738-3.188,10.596-5.699,15.663c-6.521,3.189-17.324-4.899-19.709,6.855
		c-3.699,4.074-0.543,12.978-7.773,13.278c-13.725,1.051-26.532-1.968-37.127-10.092c6.896-3.493,18.681,1.36,20.99-8.897
		c1.837-1.492,2.552-4.208,1.698-6.382c3.195-3.191,4.386-7.409,6.052-11.243c-2.482-2.554-1.364-3.906-0.788-6.896
		c-6.963-7.069-16.302-3.365-25.064-3.196c-5.269,2.989-0.243,8.729-3.736,12.396c-6.724,0.854-6.893,7.409-11.622,11.276
		c-2.685-1.186-4.686-4.856-4.521-7.534h0.89c-0.37,1.324,0.475,2.51,1.67,2.855c6.348,0.979,4.347-6.253,6.348-9.448
		c1.051-4.008,10.428-9.545,2.889-12.434c-0.368-1.666,0.989-3.873-1.188-4.893c-2.337,1.02-6.243,1.02-6.562,4.561
		c1.195,3.052,0,6.074-2.682,8.082h-1.363c0.521-2.008-1.012-3.364-2.375-4.079c-3.801,0.201-7.023,3.021-10.9,2.071
		c-5.396,1.156-11.44,2.171-16.979,2.349c-0.646-3.196,4.381-2.213,5.396-5.202c-0.874-5.062,2.488-8.081,4.688-11.786
		c1.363-1.329,3.877-0.854,5.438-0.335c1.301,1.324,2.646,2.514,4.653,2.033l1.704-2.891c5.055,3.059,2.202,17.497,12.057,11.244
		c1.562-6.181,0.205-13.58,2.894-19.286c-2.208-5.438,3.56-7.582,5.225-11.318c5.198,0.542,4.689-5.331,6.894-8.055
		c7.888-2.337,16.306-4.208,21.34-12.602c-2.045-4.203-0.688-10.249-4.013-13.623C489.436,377.36,495.31,375.521,498.031,378.507
		L498.031,378.507z M490.318,690.438l-4.724-3.226c-62.563-3.356-116.069-28.947-162.771-69.772c7.54-0.808,10.39,9.24,18.646,6.736
		c9.07-1.025,16.128-8.232,25.75-6.736c4.686,0.173,10.598,0,13.446-4.552c1.502-5.019-3.906-7.562-4.855-11.609
		c31.759,23.741,67.565,38.687,108.434,40.761l4.001-1.738v44.397L490.318,690.438L490.318,690.438z M314.061,447.979l-2.552-4.039
		c5.103,3.667,10.293,2.543,16.205,1.485c-8.254,2.688-5.229,12.811-8.393,19.027c-0.576,3.019,4.012,3.872,3.502,6.896
		c-4.078,2.009-4.587,6.39-6.382,9.545C318.745,469.654,314.402,459.049,314.061,447.979L314.061,447.979z M263.142,505.995
		c-4.554,0.476-3.364,5.535-5.265,8.012c0.404-11.751-4.823-23.162-6.387-35.12l-3.671-30.906l-2.04-2.855
		c14.814,2.174,31.125,0.782,46.745,1.189l3.699-1.731c-1.357,7.404-1.626,18.167,3.705,24.732c-1.837-2.013-4.52-7.924-8.901-7.75
		c-8.595,0.514-9.238,11.791-17.833,12.126c-7.064,5.879-8.053,14.133-9.578,22.219
		C266.639,499.065,261.275,502.256,263.142,505.995L263.142,505.995z M297.448,428.145l-4.382-1.708l-46.096,0.82
		c4.212-51.423,18.379-98.676,48.103-139.542l18.167-23.034l0.346-3.191c10.768,12.641,22.684,24.354,35.458,35.463
		c-33.155,35.674-49.932,78.397-53.636,126.293C296.128,424.91,295.576,426.916,297.448,428.145L297.448,428.145z M488.245,232.072
		c-8.69-1.865-17.63,1.124-26.527,2.007c-37.53,7.712-72.315,23.711-100.917,51.12l-1.157-3.189
		c-11.247-10.429-21.497-23.539-33.937-31.485c10.74-6.358,20.312-15.73,30.746-23c38.995-26.264,82.678-41.034,131.452-43.924
		C486.24,199.433,487.604,216.113,488.245,232.072L488.245,232.072z M412.944,485.787c0.129,1.699,2.169,3.225,4.036,2.035
		c1.832-2.556-4.036-6.932,0.308-8.422c2.72,3.019,1.356,8.086,2.888,11.572c1.363,1.905,1.838,4.045,1.531,6.596
		c-4.587,5.538-10.936,10.43-14.137,16.438c-3.021-7.536-9.775-13.583-12.81-21.295c-4.816-8.796-7.364-18.687-12.088-27.41
		c4.011,5.024,14.811-0.677,14.811,8.901c0.646,0.505,1.702,0.298,2.484,0.298c1.358-1.488,1.526-1.661,3.258-0.812
		c0.815,1.672,4.818,2.517,1.66,4.557C406.048,481.737,409.067,485.106,412.944,485.787L412.944,485.787z M462.87,616.939
		l8.052,3.693c-29.21-7.198-60.627-17.323-85.902-38.343c-4.353-2.486-7.201-8.234-12.467-8.562
		c11.824-9.551,23.605-22.229,33.495-34.312c4.376,8.044,13.787,12.43,21.021,17.832c12.707,5.874,25.95,16.643,40.833,13.581
		c-4.622,1.737-8.864,4.279-12.568,8.292c-2.068,4.52-1.363,11.238-7.438,13.244C448.267,601.995,456.828,610.039,462.87,616.939
		L462.87,616.939z M355.637,557.587l-1.703-10.421c-9.567-8.599-6.589-23.408-8.082-34.312c-6.728-5.363-1.361-14.097-6.012-20.143
		c0.102-9.784-15.217-13.144-10.462-23.917c-1.871-2.678-4.175-6.21-2.001-9.573c2.985-3.531,9.54,0.374,11.579-4.854l1.325-8.94
		c3.563-2.034,8.556,2.554,10.428-2.374c3.397-8.385-12.395-18.646,1.19-23.03c4.554-0.475,10.802-1.49,12.597,4.086
		c1.061,6.37,2.725,13.237,0.307,19.831c4.424,1.66,0.379,5.566,0.379,8.39c-2.647,1.157-5.196,3.873-8.357,2.89
		c-1.354-2.213-3.734-6.08-6.958-5.711c-2.521,3.498,1.046,7.198,0.504,11.21c-0.812,2.381-0.168,5.067-1.661,6.896
		c-1.156-0.815-2.38-1.324-4.045-1.151c-2.883,1.492-0.984,4.549-0.297,6.382c2.979,1.868,5.19,4.725,8.724,4.896l1.694-2.044
		c-0.369-5.365,2.145-9.574,2.312-14.979l4.896,2.553c4.516,20.848,13.959,39.842,25.909,57.681l6.387,6.343
		c-15.318,13.322-30.268,29.119-43.203,44.093v0.345c-0.173-0.681-0.715-3.367-2.687-2.381
		C347.038,562.963,357.6,564.787,355.637,557.587L355.637,557.587z M378.968,358.674c-4.716,2.687-8.421,7.408-11.243,11.791
		c-4.072,2.514-9.235,2.336-12.668,6.896c0,1.832,2.246,4.174-0.272,5.532c-3.873,3.666-11.948-1.012-13.786,6.047
		c-0.715,6.219-8.086,9.746-7.583,16.651c-4.036,2.679-3.354,7.908-2.851,12.083c2.175,2.717-0.979,7.572,2.851,9.583
		c-6.55-0.818-15.178-1.833-21.02,0.89c3.188-7.577,2.207-17.025,4.047-25.073c6.215-34.786,22.04-65.388,45.204-93.177
		c11.617,11.416,24.056,24.728,37.166,34.651C389.262,344.915,389.056,359.014,378.968,358.674L378.968,358.674z M482.746,539.929
		c-2.409,3.868-0.547,9.618-1.699,14.141c-22.386-3.878-42.562-13.121-60.536-27.9c10.091-10.97,23.884-21.665,31.082-33.455
		c1.057,5.369,7.409,7.885,11.79,10.396c8.964,4.009,19.838,10.228,30.025,5.907c-0.852,0.645-1.492,1.596-2.313,2.143
		c2.896,2.851-2.168,5.912,1.23,8.598c0.672,2.199-2.208,1.825-2.375,3.562c1.698,3.021-0.516,8.35,4.342,9.387
		c1.224,1.65,0,4.193-1.967,4.376C488.927,536.426,484.411,536.264,482.746,539.929L482.746,539.929z M428.568,489.487
		c3.018-3.028,5.869-6.694,6.891-10.938l5.744,2.885c-5.235,0.304-8.086,5.542-12.131,8.428L428.568,489.487L428.568,489.487z
		 M475.51,352.627c-1.017-2.38,1.872-4.89-0.85-6.421c-7.745,3.566-4.856,12.126-10.125,17.698
		c-0.852,4.381-6.555,2.178-9.204,4.521c-2.068-3.158-6.08-3.028-8.93-1.19c-4.007,0-4.689-8.221-8.938-4.007
		c-1.123,1.357-0.475,4.344-3.671,3.157c-0.677-1.118-1.872-1.324-2.683-1.968c-0.168-2.547,4.213-2.241,2.683-5.234
		c-3.023-5.398-9.605-4.555-13.62-8.595h-3.704c19.872-20.99,44.739-30.232,71.774-33.765c-0.34,12.094-1.285,25.713,2.549,36.619
		C486.585,348.246,480.707,354.806,475.51,352.627L475.51,352.627z M488.792,298.108c-8.767-1.973-17.021,2.073-25.409,2.889
		c-18.854,4.751-35.261,15.15-51.26,26.595c-0.85,1.325-1.699,2.481-2.548,3.672c-11.618-10.261-22.996-24.527-35.832-33.463
		c32.506-26.729,69.461-44.561,112.194-47.588l2.854-1.665C486.96,264.854,486.96,282.321,488.792,298.108L488.792,298.108z
		 M306.685,179.124c53.301-38.318,113.322-61.386,180.919-64.067l-1.362,4.683l0.474,40.348l1.531,4.056
		c-65.589,3.018-122.688,27.578-171.804,72.317l-0.859,2.312c-11.272-12.098-23.879-26.057-37.118-35.775h-1.56
		C287.36,196.918,296.43,186.149,306.685,179.124L306.685,179.124z M181.582,397.059c8.594-69.467,38.15-130.333,86.07-183.667
		l1.157,4.549c11.483,11.282,22.894,23.207,33.831,33.462c-9.406,6.388-14.968,17.156-22.487,25.716
		c-30.16,42.695-47.277,90.453-50.507,144.093l1.229,6.588c-16.853-1.362-35.198-1.362-51.975,0
		C180.906,417.54,179.711,407.073,181.582,397.059L181.582,397.059z M220.442,593.57c-24.219-44.917-38.52-93.828-41.236-147.665
		l46.735,0.407l4.55-1.731c-0.672,2.548-0.331,5.744-0.504,9.443l-0.341-0.542c-1.329,1.051,1.018,1.523,0.845,2.548
		c0.858,17.799,4.05,34.646,8.09,51.15l2.38,3.64c-3.565-3.158-4.895-7.037-7.605-10.396c-3.844,0.645-8.057,1.492-10.908,4.078
		c1.834,4.821-3.022,3.295-5.235,4.648c-0.677-1.152-2.001-2.515-3.326-3.155c-3.57,0.168-7.27,0.476-8.762,4.009
		c0.503,2.514-2.38,3.705-3.369,5.711c-1.051,7.603-3.532,17.457,2.006,23.705c0.167,5.567,2.855,10.596,6.9,14.102
		c1.699,0.362,2.543-0.962,3.699-1.499c4.517,3.37,6.892,11.624,13.619,10.088c2.006-0.988,1.363-3.022,2.006-4.521
		c3.565,3.533,5.23,10.771,11.785,10.062c1.632,1.695,2.515,4.689,5.198,4.923c7.063-1.9,4.521,8.052,9.784,10.9
		c4.007,2.518,6.214,8.601,12.055,5.712l2.044-2.517c1.9,1.325,0.374,4.724,2.04,6.565c2.851,5.394,8.556,9.231,14.094,10.72
		c4.89,5.615,9.953,12.17,15.654,16.173l-4.074,1.729l-33.424,34.589C249.854,635.75,232.367,615.7,220.442,593.57L220.442,593.57z
		 M457.303,752.945c-67.563-9.205-126.737-38.447-179.218-83.874l34.647-34.811l0.508-2.045
		c47.93,46.298,105.952,69.467,171.507,73.988l5.203-1.326l-1.705,2.545v45.521l2.549,4.067
		C480.337,753.817,468.072,754.778,457.303,752.945L457.303,752.945z M498.031,562.483c-3.739,0.479-6.762,0.135-9.786-1.19
		c-1.531-0.173-0.979-1.834-1.531-2.852c4.936,0.174,7.275-5.709,12.501-4.854c3.029-2.717,3.533-7.275,7.677-8.803
		c-1.316-4.336,4.08-1.525,5.236-4c1.519-1.364,3.562-2.86,5.744-1.67c3.389,4.854,10.256,2.851,13.652,8.35
		c1.693,0.71,2.17-1.151,1.967-2.304v-2.073c5.438-0.479,8.092,7.236,13.797,2.073c1.357-1.191,1.08-3.734,0-4.896
		c-0.613-0.336-1.506-0.682-1.635-1.523c3.87-1.844,6.186,5.884,10.87,3.226c3.868-3.226,6.591-7.267,11.819-7.267l1.158,1.563
		c0.811,10.048-7.746,16.134-15.289,20.654c-4.896,2.033-13.787,1.352-13.451,9.24c-5.571,5.049-10.799-3.032-17.664-0.824
		c-3.195-1.689-0.2-6.383-4.545-7.236C511.486,561.12,503.059,554.402,498.031,562.483L498.031,562.483z M510.459,647.707
		c6.123,2.504,16.508-2.514,19.848,4.351c-1.842,3.903-4.896,7.608-3.678,12.13c2.516,6.246,6.188,14.475,14.135,14.976
		c1.969,2.657,4.686,3.34,7.404,4.354c-13.523,2.207-27.992,1.527-40.383,5.702c1.656-13.59,0-27.717,0-41.511l-2.557-3.694
		C507.609,644.348,508.764,646.384,510.459,647.707L510.459,647.707z M510.973,755.315l-3.188,2.006
		c1.186-17.161,1.186-35.672,0-52.757c8.457,2.858,17.35-0.404,26.252-0.404l25.748-4.51c12.703,2.543,21.811,23.195,35.939,10.625
		c4.887-5.873,13.441-5.396,16.506-13.522c8.221-2.984,10.26-11.374,16.102-16.737c5.574-15.828,23.369-18.181,34.309-29.083
		c7.947-7.102,18.348-12.967,23.104-22.247l0.742,4.042l35.529,33.804C661.961,721.015,592.057,751.785,510.973,755.315
		L510.973,755.315z M819.715,447.129c-3.201,78.672-32.473,146.604-83.906,205.301l-1.357,2.479
		c-10.597-11.585-24.732-26.7-37.502-36.786c7.739-5.232,13.655-14.301,19.834-21.699c31.93-43.862,50.621-93.312,53.338-149.292
		l-1.703-4.555l2.859,2.007l47.957-0.303l2.447-1.229L819.715,447.129L819.715,447.129z"/>
	<path fill="#FFFFFF" d="M648.514,183.126c-0.133,1.867,0.197,3.499,1.223,4.86c7.064,2.545,7.879,12.805,16.914,10.496
		c2.721-3.091-1.633-6.287-0.812-10.121c-1.162-3.536-4.225-5.062-7.543-6.085C654.762,185.675,651.701,179.254,648.514,183.126
		L648.514,183.126z"/>
	<path fill="#FFFFFF" d="M514.201,154.559c8.896,11.45,24.383,5.024,35.463,2.856c8.088,3.358,15.826-0.653,21.873-5.707v-1.228
		c-5.711-8.014-16.502-9.238-26.219-10.049l-24.256,10.457c-1.973-0.884-5.85-1.93-7.229,0.819
		C512.775,152.554,513.836,153.743,514.201,154.559L514.201,154.559z"/>
</g>
</svg>
